<svg xmlns="http://www.w3.org/2000/svg" xmlns:xlink="http://www.w3.org/1999/xlink" width="2048" zoomAndPan="magnify" viewBox="0 0 1536 863.999991" height="1152" preserveAspectRatio="xMidYMid meet" version="1.0"><defs><g/></defs><g fill="#ffffff" fill-opacity="1"><g transform="translate(17.555207, 339.142654)"><g><path d="M 121.109375 -208.59375 L 205.3125 0 L 154.234375 0 L 138.8125 -41.71875 L 59.421875 -41.71875 L 44 0 L -7.078125 0 L 77.125 -208.59375 Z M 122.625 -83.4375 L 99.375 -144.125 L 98.859375 -144.125 L 75.59375 -83.4375 Z M 122.625 -83.4375 "/></g></g></g><g fill="#ffffff" fill-opacity="1"><g transform="translate(220.55297, 339.142654)"><g><path d="M 62.703125 -208.59375 L 62.703125 -41.71875 L 134.515625 -41.71875 L 134.515625 0 L 15.171875 0 L 15.171875 -208.59375 Z M 62.703125 -208.59375 "/></g></g></g><g fill="#ffffff" fill-opacity="1"><g transform="translate(368.187976, 339.142654)"><g><path d="M 135.78125 -208.59375 L 135.78125 -166.875 L 62.703125 -166.875 L 62.703125 -125.40625 L 130.21875 -125.40625 L 130.21875 -83.6875 L 62.703125 -83.6875 L 62.703125 0 L 15.171875 0 L 15.171875 -208.59375 Z M 135.78125 -208.59375 "/></g></g></g><g fill="#ffffff" fill-opacity="1"><g transform="translate(516.328563, 339.142654)"><g><path d="M 134.515625 -208.59375 L 134.515625 -166.875 L 62.703125 -166.875 L 62.703125 -125.40625 L 131.484375 -125.40625 L 131.484375 -83.6875 L 62.703125 -83.6875 L 62.703125 -41.71875 L 134.515625 -41.71875 L 134.515625 0 L 15.171875 0 L 15.171875 -208.59375 Z M 134.515625 -208.59375 "/></g></g></g><g fill="#ffffff" fill-opacity="1"><g transform="translate(667.755502, 339.142654)"><g><path d="M 92.03125 -212.390625 C 103.320312 -212.390625 114.363281 -210.742188 125.15625 -207.453125 C 135.945312 -204.171875 143.953125 -200.925781 149.171875 -197.71875 L 156.765625 -192.671875 L 137.546875 -154.734375 C 136.023438 -155.742188 133.914062 -157.050781 131.21875 -158.65625 C 128.53125 -160.257812 123.476562 -162.410156 116.0625 -165.109375 C 108.644531 -167.804688 101.734375 -169.15625 95.328125 -169.15625 C 87.398438 -169.15625 81.285156 -167.46875 76.984375 -164.09375 C 72.691406 -160.71875 70.546875 -156.164062 70.546875 -150.4375 C 70.546875 -147.570312 71.554688 -144.914062 73.578125 -142.46875 C 75.597656 -140.03125 79.050781 -137.421875 83.9375 -134.640625 C 88.832031 -131.859375 93.132812 -129.625 96.84375 -127.9375 C 100.550781 -126.25 106.28125 -123.722656 114.03125 -120.359375 C 127.519531 -114.617188 139.023438 -106.816406 148.546875 -96.953125 C 158.066406 -87.097656 162.828125 -75.9375 162.828125 -63.46875 C 162.828125 -51.5 160.675781 -41.046875 156.375 -32.109375 C 152.082031 -23.171875 146.1875 -16.175781 138.6875 -11.125 C 131.1875 -6.070312 122.882812 -2.320312 113.78125 0.125 C 104.675781 2.570312 94.816406 3.796875 84.203125 3.796875 C 75.097656 3.796875 66.160156 2.867188 57.390625 1.015625 C 48.628906 -0.835938 41.296875 -3.15625 35.390625 -5.9375 C 29.492188 -8.71875 24.1875 -11.457031 19.46875 -14.15625 C 14.75 -16.851562 11.296875 -19.128906 9.109375 -20.984375 L 5.8125 -23.765625 L 29.578125 -63.71875 C 31.597656 -62.03125 34.378906 -59.878906 37.921875 -57.265625 C 41.460938 -54.648438 47.742188 -51.148438 56.765625 -46.765625 C 65.785156 -42.390625 73.75 -40.203125 80.65625 -40.203125 C 100.71875 -40.203125 110.75 -47.03125 110.75 -60.6875 C 110.75 -63.550781 110.03125 -66.203125 108.59375 -68.640625 C 107.164062 -71.085938 104.640625 -73.53125 101.015625 -75.96875 C 97.390625 -78.414062 94.1875 -80.351562 91.40625 -81.78125 C 88.625 -83.21875 84.070312 -85.410156 77.75 -88.359375 C 71.425781 -91.316406 66.75 -93.550781 63.71875 -95.0625 C 51.070312 -101.300781 41.289062 -109.097656 34.375 -118.453125 C 27.46875 -127.804688 24.015625 -137.878906 24.015625 -148.671875 C 24.015625 -167.378906 30.925781 -182.675781 44.75 -194.5625 C 58.570312 -206.445312 74.332031 -212.390625 92.03125 -212.390625 Z M 92.03125 -212.390625 "/></g></g></g><g fill="#ffffff" fill-opacity="1"><g transform="translate(842.43987, 339.142654)"><g><path d="M 92.03125 -212.390625 C 103.320312 -212.390625 114.363281 -210.742188 125.15625 -207.453125 C 135.945312 -204.171875 143.953125 -200.925781 149.171875 -197.71875 L 156.765625 -192.671875 L 137.546875 -154.734375 C 136.023438 -155.742188 133.914062 -157.050781 131.21875 -158.65625 C 128.53125 -160.257812 123.476562 -162.410156 116.0625 -165.109375 C 108.644531 -167.804688 101.734375 -169.15625 95.328125 -169.15625 C 87.398438 -169.15625 81.285156 -167.46875 76.984375 -164.09375 C 72.691406 -160.71875 70.546875 -156.164062 70.546875 -150.4375 C 70.546875 -147.570312 71.554688 -144.914062 73.578125 -142.46875 C 75.597656 -140.03125 79.050781 -137.421875 83.9375 -134.640625 C 88.832031 -131.859375 93.132812 -129.625 96.84375 -127.9375 C 100.550781 -126.25 106.28125 -123.722656 114.03125 -120.359375 C 127.519531 -114.617188 139.023438 -106.816406 148.546875 -96.953125 C 158.066406 -87.097656 162.828125 -75.9375 162.828125 -63.46875 C 162.828125 -51.5 160.675781 -41.046875 156.375 -32.109375 C 152.082031 -23.171875 146.1875 -16.175781 138.6875 -11.125 C 131.1875 -6.070312 122.882812 -2.320312 113.78125 0.125 C 104.675781 2.570312 94.816406 3.796875 84.203125 3.796875 C 75.097656 3.796875 66.160156 2.867188 57.390625 1.015625 C 48.628906 -0.835938 41.296875 -3.15625 35.390625 -5.9375 C 29.492188 -8.71875 24.1875 -11.457031 19.46875 -14.15625 C 14.75 -16.851562 11.296875 -19.128906 9.109375 -20.984375 L 5.8125 -23.765625 L 29.578125 -63.71875 C 31.597656 -62.03125 34.378906 -59.878906 37.921875 -57.265625 C 41.460938 -54.648438 47.742188 -51.148438 56.765625 -46.765625 C 65.785156 -42.390625 73.75 -40.203125 80.65625 -40.203125 C 100.71875 -40.203125 110.75 -47.03125 110.75 -60.6875 C 110.75 -63.550781 110.03125 -66.203125 108.59375 -68.640625 C 107.164062 -71.085938 104.640625 -73.53125 101.015625 -75.96875 C 97.390625 -78.414062 94.1875 -80.351562 91.40625 -81.78125 C 88.625 -83.21875 84.070312 -85.410156 77.75 -88.359375 C 71.425781 -91.316406 66.75 -93.550781 63.71875 -95.0625 C 51.070312 -101.300781 41.289062 -109.097656 34.375 -118.453125 C 27.46875 -127.804688 24.015625 -137.878906 24.015625 -148.671875 C 24.015625 -167.378906 30.925781 -182.675781 44.75 -194.5625 C 58.570312 -206.445312 74.332031 -212.390625 92.03125 -212.390625 Z M 92.03125 -212.390625 "/></g></g></g><g fill="#ffffff" fill-opacity="1"><g transform="translate(1017.124237, 339.142654)"><g><path d="M 121.109375 -208.59375 L 205.3125 0 L 154.234375 0 L 138.8125 -41.71875 L 59.421875 -41.71875 L 44 0 L -7.078125 0 L 77.125 -208.59375 Z M 122.625 -83.4375 L 99.375 -144.125 L 98.859375 -144.125 L 75.59375 -83.4375 Z M 122.625 -83.4375 "/></g></g></g><g fill="#ffffff" fill-opacity="1"><g transform="translate(1220.122001, 339.142654)"><g><path d="M 62.703125 -129.453125 L 62.703125 0 L 15.171875 0 L 15.171875 -208.59375 L 62.703125 -208.59375 L 145.640625 -79.140625 L 146.140625 -79.140625 L 146.140625 -208.59375 L 193.671875 -208.59375 L 193.671875 0 L 146.140625 0 L 63.21875 -129.453125 Z M 62.703125 -129.453125 "/></g></g></g><g fill="#ffffff" fill-opacity="1"><g transform="translate(1433.737106, 339.142654)"><g><path d="M 62.703125 -208.59375 L 62.703125 0 L 15.171875 0 L 15.171875 -208.59375 Z M 62.703125 -208.59375 "/></g></g></g><g fill="#ffffff" fill-opacity="1"><g transform="translate(17.555207, 650.487878)"><g><path d="M 15.171875 -208.59375 L 75.59375 -208.59375 C 104.59375 -208.59375 129.375 -198.6875 149.9375 -178.875 C 170.5 -159.070312 180.78125 -134.253906 180.78125 -104.421875 C 180.78125 -74.421875 170.539062 -49.515625 150.0625 -29.703125 C 129.582031 -9.898438 104.757812 0 75.59375 0 L 15.171875 0 Z M 62.703125 -42.484375 L 70.03125 -42.484375 C 87.394531 -42.484375 101.597656 -48.335938 112.640625 -60.046875 C 123.679688 -71.765625 129.285156 -86.472656 129.453125 -104.171875 C 129.453125 -121.867188 123.929688 -136.617188 112.890625 -148.421875 C 101.847656 -160.222656 87.5625 -166.125 70.03125 -166.125 L 62.703125 -166.125 Z M 62.703125 -42.484375 "/></g></g></g><g fill="#ffffff" fill-opacity="1"><g transform="translate(208.924215, 650.487878)"><g><path d="M 62.703125 -208.59375 L 62.703125 0 L 15.171875 0 L 15.171875 -208.59375 Z M 62.703125 -208.59375 "/></g></g></g><g fill="#ffffff" fill-opacity="1"><g transform="translate(291.590201, 650.487878)"><g><path d="M 203.796875 -116.8125 L 203.796875 -71.5625 C 198.398438 -46.78125 186.597656 -28.023438 168.390625 -15.296875 C 150.191406 -2.566406 129.878906 3.796875 107.453125 3.796875 C 79.304688 3.796875 55.328125 -6.738281 35.515625 -27.8125 C 15.710938 -48.882812 5.8125 -74.335938 5.8125 -104.171875 C 5.8125 -134.515625 15.503906 -160.132812 34.890625 -181.03125 C 54.273438 -201.9375 78.460938 -212.390625 107.453125 -212.390625 C 141.335938 -212.390625 168.140625 -200.503906 187.859375 -176.734375 L 156.765625 -142.609375 C 145.640625 -160.472656 130.128906 -169.40625 110.234375 -169.40625 C 95.578125 -169.40625 83.0625 -163.039062 72.6875 -150.3125 C 62.320312 -137.582031 57.140625 -122.203125 57.140625 -104.171875 C 57.140625 -86.472656 62.320312 -71.34375 72.6875 -58.78125 C 83.0625 -46.226562 95.578125 -39.953125 110.234375 -39.953125 C 122.367188 -39.953125 132.945312 -43.617188 141.96875 -50.953125 C 150.988281 -58.285156 155.5 -68.019531 155.5 -80.15625 L 107.453125 -80.15625 L 107.453125 -116.8125 Z M 203.796875 -116.8125 "/></g></g></g><g fill="#ffffff" fill-opacity="1"><g transform="translate(505.963842, 650.487878)"><g><path d="M 121.109375 -208.59375 L 205.3125 0 L 154.234375 0 L 138.8125 -41.71875 L 59.421875 -41.71875 L 44 0 L -7.078125 0 L 77.125 -208.59375 Z M 122.625 -83.4375 L 99.375 -144.125 L 98.859375 -144.125 L 75.59375 -83.4375 Z M 122.625 -83.4375 "/></g></g></g><g fill="#ffffff" fill-opacity="1"><g transform="translate(708.961606, 650.487878)"><g><path d="M 62.703125 -129.453125 L 62.703125 0 L 15.171875 0 L 15.171875 -208.59375 L 62.703125 -208.59375 L 145.640625 -79.140625 L 146.140625 -79.140625 L 146.140625 -208.59375 L 193.671875 -208.59375 L 193.671875 0 L 146.140625 0 L 63.21875 -129.453125 Z M 62.703125 -129.453125 "/></g></g></g><g fill="#ffffff" fill-opacity="1"><g transform="translate(922.576793, 650.487878)"><g><path d="M 2.015625 -166.875 L 2.015625 -208.59375 L 148.671875 -208.59375 L 148.671875 -166.875 L 99.109375 -166.875 L 99.109375 0 L 51.578125 0 L 51.578125 -166.875 Z M 2.015625 -166.875 "/></g></g></g><g fill="#ffffff" fill-opacity="1"><g transform="translate(1078.048538, 650.487878)"><g><path d="M 121.109375 -208.59375 L 205.3125 0 L 154.234375 0 L 138.8125 -41.71875 L 59.421875 -41.71875 L 44 0 L -7.078125 0 L 77.125 -208.59375 Z M 122.625 -83.4375 L 99.375 -144.125 L 98.859375 -144.125 L 75.59375 -83.4375 Z M 122.625 -83.4375 "/></g></g></g></svg>