<svg xmlns="http://www.w3.org/2000/svg" xmlns:xlink="http://www.w3.org/1999/xlink" width="1920" zoomAndPan="magnify" viewBox="0 0 1440 809.999993" height="1080" preserveAspectRatio="xMidYMid meet" version="1.0"><defs><g/><clipPath id="8e9be8bd8b"><path d="M 561 342 L 625.589844 342 L 625.589844 408 L 561 408 Z M 561 342 " clip-rule="nonzero"/></clipPath><clipPath id="b84b376b09"><path d="M 561 422 L 625.589844 422 L 625.589844 488 L 561 488 Z M 561 422 " clip-rule="nonzero"/></clipPath><clipPath id="0e0cb36b52"><path d="M 77.339844 287 L 142 287 L 142 354 L 77.339844 354 Z M 77.339844 287 " clip-rule="nonzero"/></clipPath><clipPath id="c466e247b6"><path d="M 108 17.234375 L 595 17.234375 L 595 322 L 108 322 Z M 108 17.234375 " clip-rule="nonzero"/></clipPath></defs><g clip-path="url(#8e9be8bd8b)"><path fill="#ffffff" d="M 605.324219 373.53125 C 598.976562 372.097656 596.152344 369.191406 594.761719 362.738281 L 595.324219 342.28125 L 591.140625 342.28125 L 591.648438 363.109375 C 590.234375 369.300781 587.390625 372.125 581.171875 373.53125 L 561.039062 373.039062 L 561.039062 377.222656 L 581.085938 376.671875 C 587.453125 378.089844 590.304688 380.96875 591.707031 387.375 L 591.140625 407.980469 L 595.324219 407.980469 L 594.816406 387.21875 C 596.230469 380.917969 599.089844 378.074219 605.410156 376.667969 L 625.496094 377.222656 L 625.496094 373.039062 Z M 605.324219 373.53125 " fill-opacity="1" fill-rule="nonzero"/></g><g clip-path="url(#b84b376b09)"><path fill="#ffffff" d="M 594.761719 442.722656 L 595.324219 422.265625 L 591.140625 422.265625 L 591.648438 443.09375 C 590.234375 449.285156 587.390625 452.109375 581.171875 453.511719 L 561.039062 453.023438 L 561.039062 457.207031 L 581.085938 456.65625 C 587.453125 458.070312 590.304688 460.949219 591.707031 467.359375 L 591.140625 487.960938 L 595.324219 487.960938 L 594.816406 467.203125 C 596.230469 460.902344 599.089844 458.058594 605.410156 456.652344 L 625.496094 457.203125 L 625.496094 453.023438 L 605.324219 453.511719 C 598.976562 452.078125 596.148438 449.175781 594.761719 442.722656 Z M 594.761719 442.722656 " fill-opacity="1" fill-rule="nonzero"/></g><g clip-path="url(#0e0cb36b52)"><path fill="#ffffff" d="M 111.753906 353.679688 L 111.25 332.917969 C 112.664062 326.617188 115.523438 323.773438 121.84375 322.367188 L 141.929688 322.921875 L 141.929688 318.738281 L 121.753906 319.230469 C 115.410156 317.796875 112.582031 314.890625 111.191406 308.4375 L 111.753906 287.980469 L 107.570312 287.980469 L 108.078125 308.808594 C 106.664062 315 103.824219 317.824219 97.601562 319.230469 L 77.472656 318.738281 L 77.472656 322.921875 L 97.515625 322.371094 C 103.882812 323.789062 106.738281 326.667969 108.136719 333.074219 L 107.570312 353.679688 Z M 111.753906 353.679688 " fill-opacity="1" fill-rule="nonzero"/></g><g clip-path="url(#c466e247b6)"><path fill="#ffffff" d="M 109.488281 282.621094 C 109.683594 282.621094 109.871094 282.585938 110.050781 282.511719 C 110.230469 282.4375 110.390625 282.328125 110.527344 282.191406 C 110.664062 282.054688 110.769531 281.894531 110.84375 281.714844 C 110.917969 281.535156 110.957031 281.347656 110.957031 281.15625 L 110.957031 259.386719 C 110.957031 126.875 218.761719 19.070312 351.273438 19.070312 C 483.785156 19.070312 591.589844 126.875 591.589844 259.386719 L 591.589844 320.527344 C 591.589844 320.722656 591.628906 320.90625 591.703125 321.085938 C 591.777344 321.269531 591.882812 321.425781 592.019531 321.5625 C 592.160156 321.703125 592.316406 321.808594 592.496094 321.882812 C 592.675781 321.957031 592.863281 321.992188 593.058594 321.992188 C 593.253906 321.992188 593.441406 321.957031 593.621094 321.882812 C 593.800781 321.808594 593.957031 321.703125 594.097656 321.5625 C 594.234375 321.425781 594.339844 321.269531 594.414062 321.085938 C 594.488281 320.90625 594.527344 320.722656 594.527344 320.527344 L 594.527344 259.386719 C 594.527344 255.40625 594.429688 251.425781 594.234375 247.449219 C 594.039062 243.472656 593.746094 239.503906 593.355469 235.542969 C 592.964844 231.582031 592.476562 227.632812 591.894531 223.691406 C 591.308594 219.753906 590.628906 215.835938 589.851562 211.929688 C 589.074219 208.023438 588.203125 204.140625 587.234375 200.28125 C 586.269531 196.417969 585.207031 192.582031 584.050781 188.773438 C 582.894531 184.964844 581.648438 181.183594 580.308594 177.4375 C 578.964844 173.6875 577.53125 169.976562 576.007812 166.296875 C 574.484375 162.621094 572.875 158.980469 571.171875 155.382812 C 569.46875 151.785156 567.679688 148.226562 565.804688 144.71875 C 563.925781 141.207031 561.964844 137.742188 559.917969 134.328125 C 557.871094 130.914062 555.742188 127.550781 553.53125 124.242188 C 551.320312 120.933594 549.027344 117.679688 546.65625 114.480469 C 544.285156 111.28125 541.835938 108.144531 539.308594 105.066406 C 536.785156 101.992188 534.183594 98.976562 531.511719 96.027344 C 528.839844 93.078125 526.09375 90.195312 523.277344 87.378906 C 520.464844 84.566406 517.582031 81.820312 514.632812 79.148438 C 511.683594 76.472656 508.667969 73.875 505.589844 71.347656 C 502.515625 68.824219 499.375 66.375 496.179688 64.003906 C 492.980469 61.632812 489.726562 59.339844 486.417969 57.128906 C 483.109375 54.917969 479.746094 52.789062 476.332031 50.742188 C 472.914062 48.695312 469.453125 46.734375 465.941406 44.855469 C 462.429688 42.980469 458.875 41.191406 455.277344 39.488281 C 451.679688 37.785156 448.039062 36.171875 444.363281 34.648438 C 440.683594 33.125 436.972656 31.695312 433.222656 30.351562 C 429.476562 29.011719 425.695312 27.761719 421.886719 26.609375 C 418.078125 25.453125 414.242188 24.390625 410.378906 23.421875 C 406.519531 22.457031 402.632812 21.585938 398.730469 20.808594 C 394.824219 20.03125 390.90625 19.351562 386.964844 18.765625 C 383.027344 18.183594 379.078125 17.695312 375.117188 17.304688 C 371.15625 16.914062 367.1875 16.621094 363.210938 16.425781 C 359.234375 16.230469 355.253906 16.132812 351.273438 16.132812 C 347.292969 16.132812 343.3125 16.230469 339.339844 16.425781 C 335.363281 16.621094 331.394531 16.914062 327.429688 17.304688 C 323.46875 17.695312 319.519531 18.183594 315.582031 18.765625 C 311.644531 19.351562 307.722656 20.03125 303.816406 20.808594 C 299.914062 21.585938 296.03125 22.457031 292.167969 23.421875 C 288.308594 24.390625 284.472656 25.453125 280.660156 26.609375 C 276.851562 27.761719 273.074219 29.011719 269.324219 30.351562 C 265.578125 31.695312 261.863281 33.125 258.183594 34.648438 C 254.507812 36.171875 250.867188 37.785156 247.269531 39.488281 C 243.671875 41.191406 240.117188 42.980469 236.605469 44.855469 C 233.09375 46.734375 229.632812 48.695312 226.21875 50.742188 C 222.800781 52.789062 219.441406 54.917969 216.128906 57.128906 C 212.820312 59.339844 209.566406 61.632812 206.367188 64.003906 C 203.171875 66.375 200.035156 68.824219 196.957031 71.347656 C 193.878906 73.875 190.867188 76.472656 187.914062 79.148438 C 184.964844 81.820312 182.082031 84.566406 179.269531 87.378906 C 176.453125 90.195312 173.710938 93.078125 171.035156 96.027344 C 168.363281 98.976562 165.761719 101.992188 163.238281 105.066406 C 160.710938 108.144531 158.261719 111.28125 155.890625 114.480469 C 153.519531 117.679688 151.230469 120.933594 149.015625 124.242188 C 146.804688 127.550781 144.675781 130.914062 142.628906 134.328125 C 140.582031 137.742188 138.621094 141.207031 136.746094 144.71875 C 134.867188 148.226562 133.078125 151.785156 131.375 155.382812 C 129.675781 158.980469 128.0625 162.621094 126.539062 166.296875 C 125.015625 169.976562 123.582031 173.6875 122.242188 177.4375 C 120.898438 181.183594 119.652344 184.964844 118.496094 188.773438 C 117.339844 192.582031 116.277344 196.417969 115.3125 200.28125 C 114.34375 204.140625 113.472656 208.023438 112.695312 211.929688 C 111.917969 215.835938 111.238281 219.753906 110.65625 223.691406 C 110.070312 227.632812 109.582031 231.582031 109.191406 235.542969 C 108.800781 239.503906 108.511719 243.472656 108.316406 247.449219 C 108.121094 251.425781 108.023438 255.40625 108.023438 259.386719 L 108.023438 281.15625 C 108.023438 281.347656 108.058594 281.535156 108.132812 281.714844 C 108.207031 281.894531 108.3125 282.054688 108.453125 282.191406 C 108.589844 282.328125 108.746094 282.4375 108.925781 282.511719 C 109.105469 282.585938 109.292969 282.621094 109.488281 282.621094 Z M 109.488281 282.621094 " fill-opacity="1" fill-rule="nonzero"/></g><path fill="#ffffff" d="M 593.058594 505.207031 C 592.863281 505.207031 592.675781 505.242188 592.496094 505.316406 C 592.316406 505.394531 592.160156 505.5 592.019531 505.636719 C 591.882812 505.773438 591.777344 505.933594 591.703125 506.113281 C 591.628906 506.292969 591.589844 506.480469 591.589844 506.675781 C 591.589844 639.183594 483.785156 746.992188 351.273438 746.992188 C 218.761719 746.992188 110.957031 639.183594 110.957031 506.675781 L 110.957031 362.957031 C 110.957031 362.761719 110.917969 362.574219 110.84375 362.394531 C 110.769531 362.214844 110.664062 362.058594 110.527344 361.917969 C 110.390625 361.78125 110.230469 361.675781 110.050781 361.601562 C 109.871094 361.527344 109.683594 361.488281 109.488281 361.488281 C 109.292969 361.488281 109.105469 361.527344 108.925781 361.601562 C 108.746094 361.675781 108.589844 361.78125 108.453125 361.917969 C 108.3125 362.058594 108.207031 362.214844 108.132812 362.394531 C 108.058594 362.574219 108.023438 362.761719 108.023438 362.957031 L 108.023438 506.675781 C 108.023438 510.65625 108.121094 514.632812 108.316406 518.609375 C 108.511719 522.585938 108.800781 526.554688 109.191406 530.515625 C 109.582031 534.480469 110.070312 538.429688 110.65625 542.367188 C 111.238281 546.304688 111.917969 550.226562 112.695312 554.128906 C 113.472656 558.035156 114.34375 561.917969 115.3125 565.78125 C 116.277344 569.640625 117.339844 573.476562 118.496094 577.285156 C 119.652344 581.097656 120.898438 584.875 122.242188 588.625 C 123.582031 592.371094 125.015625 596.085938 126.539062 599.761719 C 128.0625 603.441406 129.675781 607.078125 131.375 610.679688 C 133.078125 614.277344 134.867188 617.832031 136.746094 621.34375 C 138.621094 624.851562 140.582031 628.316406 142.628906 631.730469 C 144.675781 635.144531 146.804688 638.507812 149.015625 641.816406 C 151.230469 645.128906 153.519531 648.382812 155.890625 651.578125 C 158.261719 654.777344 160.710938 657.914062 163.238281 660.992188 C 165.761719 664.070312 168.363281 667.082031 171.035156 670.03125 C 173.710938 672.980469 176.453125 675.863281 179.269531 678.679688 C 182.082031 681.496094 184.964844 684.238281 187.914062 686.914062 C 190.867188 689.585938 193.878906 692.183594 196.957031 694.710938 C 200.035156 697.234375 203.171875 699.683594 206.367188 702.054688 C 209.566406 704.425781 212.820312 706.71875 216.128906 708.929688 C 219.441406 711.144531 222.800781 713.273438 226.21875 715.320312 C 229.632812 717.363281 233.09375 719.328125 236.605469 721.203125 C 240.117188 723.082031 243.671875 724.871094 247.269531 726.570312 C 250.867188 728.273438 254.507812 729.886719 258.183594 731.410156 C 261.863281 732.933594 265.578125 734.367188 269.324219 735.707031 C 273.074219 737.046875 276.851562 738.296875 280.660156 739.453125 C 284.472656 740.609375 288.308594 741.667969 292.167969 742.636719 C 296.03125 743.605469 299.914062 744.476562 303.816406 745.253906 C 307.722656 746.027344 311.644531 746.710938 315.582031 747.292969 C 319.519531 747.878906 323.46875 748.363281 327.429688 748.753906 C 331.394531 749.144531 335.363281 749.4375 339.339844 749.632812 C 343.3125 749.828125 347.292969 749.925781 351.273438 749.925781 C 355.253906 749.925781 359.234375 749.828125 363.210938 749.632812 C 367.1875 749.4375 371.15625 749.144531 375.117188 748.753906 C 379.078125 748.363281 383.027344 747.878906 386.964844 747.292969 C 390.90625 746.710938 394.824219 746.027344 398.730469 745.253906 C 402.632812 744.476562 406.519531 743.605469 410.378906 742.636719 C 414.242188 741.667969 418.078125 740.609375 421.886719 739.453125 C 425.695312 738.296875 429.476562 737.046875 433.222656 735.707031 C 436.972656 734.367188 440.683594 732.933594 444.363281 731.410156 C 448.039062 729.886719 451.679688 728.273438 455.277344 726.570312 C 458.875 724.871094 462.429688 723.082031 465.941406 721.203125 C 469.453125 719.328125 472.914062 717.367188 476.332031 715.320312 C 479.746094 713.273438 483.109375 711.144531 486.417969 708.929688 C 489.726562 706.71875 492.980469 704.425781 496.179688 702.054688 C 499.375 699.683594 502.515625 697.234375 505.589844 694.710938 C 508.667969 692.183594 511.683594 689.585938 514.632812 686.914062 C 517.582031 684.238281 520.464844 681.496094 523.277344 678.679688 C 526.09375 675.863281 528.839844 672.980469 531.511719 670.03125 C 534.183594 667.082031 536.785156 664.070312 539.308594 660.992188 C 541.835938 657.914062 544.285156 654.777344 546.65625 651.578125 C 549.027344 648.382812 551.320312 645.128906 553.53125 641.816406 C 555.742188 638.507812 557.871094 635.144531 559.917969 631.730469 C 561.964844 628.316406 563.925781 624.851562 565.804688 621.34375 C 567.679688 617.832031 569.46875 614.277344 571.171875 610.679688 C 572.875 607.078125 574.484375 603.441406 576.007812 599.761719 C 577.53125 596.085938 578.964844 592.371094 580.308594 588.625 C 581.648438 584.875 582.894531 581.097656 584.050781 577.285156 C 585.207031 573.476562 586.269531 569.640625 587.234375 565.78125 C 588.203125 561.917969 589.074219 558.035156 589.851562 554.128906 C 590.628906 550.226562 591.308594 546.304688 591.894531 542.367188 C 592.476562 538.429688 592.964844 534.480469 593.355469 530.515625 C 593.746094 526.554688 594.039062 522.585938 594.234375 518.609375 C 594.429688 514.632812 594.527344 510.65625 594.527344 506.675781 C 594.527344 506.480469 594.488281 506.292969 594.414062 506.113281 C 594.339844 505.933594 594.234375 505.773438 594.097656 505.636719 C 593.957031 505.5 593.800781 505.394531 593.621094 505.316406 C 593.441406 505.242188 593.253906 505.207031 593.058594 505.207031 Z M 593.058594 505.207031 " fill-opacity="1" fill-rule="nonzero"/><g fill="#ffffff" fill-opacity="1"><g transform="translate(199.837048, 490.885041)"><g><path d="M 4.078125 0 L 26.65625 -233.640625 L 105.796875 -233.640625 L 128.109375 0 L 83.765625 0 L 80.5 -37.8125 L 52.21875 -37.8125 L 49.5 0 Z M 55.75 -75.0625 L 76.96875 -75.0625 L 66.640625 -193.921875 L 64.453125 -193.921875 Z M 55.75 -75.0625 "/></g></g></g><g fill="#ffffff" fill-opacity="1"><g transform="translate(331.74166, 490.885041)"><g><path d="M 10.328125 0 L 10.328125 -233.640625 L 57.109375 -233.640625 L 57.109375 -39.703125 L 105.265625 -39.703125 L 105.265625 0 Z M 10.328125 0 "/></g></g></g><g fill="#ffffff" fill-opacity="1"><g transform="translate(439.713077, 490.885041)"><g><path d="M 10.328125 0 L 10.328125 -233.640625 L 103.890625 -233.640625 L 103.890625 -188.21875 L 57.390625 -188.21875 L 57.390625 -150.953125 L 101.453125 -150.953125 L 101.453125 -106.078125 L 57.390625 -106.078125 L 57.390625 0 Z M 10.328125 0 "/></g></g></g><g fill="#ffffff" fill-opacity="1"><g transform="translate(548.228421, 490.885041)"><g><path d="M 10.328125 0 L 10.328125 -233.640625 L 103.890625 -233.640625 L 103.890625 -188.484375 L 57.9375 -188.484375 L 57.9375 -143.0625 L 102 -143.0625 L 102 -99 L 57.9375 -99 L 57.9375 -45.421875 L 106.890625 -45.421875 L 106.890625 0 Z M 10.328125 0 "/></g></g></g><g fill="#ffffff" fill-opacity="1"><g transform="translate(660.279341, 490.885041)"><g><path d="M 65.8125 2.171875 C 44.601562 2.171875 29.285156 -3.082031 19.859375 -13.59375 C 10.429688 -24.113281 5.71875 -41.066406 5.71875 -64.453125 L 5.71875 -87.3125 L 51.671875 -87.3125 L 51.671875 -58.203125 C 51.671875 -46.597656 55.390625 -40.796875 62.828125 -40.796875 C 66.992188 -40.796875 69.894531 -42.019531 71.53125 -44.46875 C 73.164062 -46.914062 73.984375 -51.039062 73.984375 -56.84375 C 73.984375 -64.457031 73.078125 -70.757812 71.265625 -75.75 C 69.453125 -80.738281 67.140625 -84.910156 64.328125 -88.265625 C 61.515625 -91.617188 56.484375 -96.828125 49.234375 -103.890625 L 29.109375 -124.03125 C 13.515625 -139.257812 5.71875 -156.117188 5.71875 -174.609375 C 5.71875 -194.554688 10.296875 -209.742188 19.453125 -220.171875 C 28.609375 -230.597656 41.976562 -235.8125 59.5625 -235.8125 C 80.59375 -235.8125 95.734375 -230.234375 104.984375 -219.078125 C 114.234375 -207.929688 118.859375 -190.476562 118.859375 -166.71875 L 71.265625 -166.71875 L 70.984375 -182.78125 C 70.984375 -185.851562 70.117188 -188.296875 68.390625 -190.109375 C 66.671875 -191.929688 64.273438 -192.84375 61.203125 -192.84375 C 57.566406 -192.84375 54.84375 -191.84375 53.03125 -189.84375 C 51.21875 -187.851562 50.3125 -185.132812 50.3125 -181.6875 C 50.3125 -174.070312 54.664062 -166.179688 63.375 -158.015625 L 90.578125 -131.90625 C 96.921875 -125.75 102.175781 -119.90625 106.34375 -114.375 C 110.507812 -108.84375 113.863281 -102.3125 116.40625 -94.78125 C 118.945312 -87.257812 120.21875 -78.332031 120.21875 -68 C 120.21875 -44.96875 116 -27.515625 107.5625 -15.640625 C 99.132812 -3.765625 85.21875 2.171875 65.8125 2.171875 Z M 65.8125 2.171875 "/></g></g></g><g fill="#ffffff" fill-opacity="1"><g transform="translate(785.656727, 490.885041)"><g><path d="M 65.8125 2.171875 C 44.601562 2.171875 29.285156 -3.082031 19.859375 -13.59375 C 10.429688 -24.113281 5.71875 -41.066406 5.71875 -64.453125 L 5.71875 -87.3125 L 51.671875 -87.3125 L 51.671875 -58.203125 C 51.671875 -46.597656 55.390625 -40.796875 62.828125 -40.796875 C 66.992188 -40.796875 69.894531 -42.019531 71.53125 -44.46875 C 73.164062 -46.914062 73.984375 -51.039062 73.984375 -56.84375 C 73.984375 -64.457031 73.078125 -70.757812 71.265625 -75.75 C 69.453125 -80.738281 67.140625 -84.910156 64.328125 -88.265625 C 61.515625 -91.617188 56.484375 -96.828125 49.234375 -103.890625 L 29.109375 -124.03125 C 13.515625 -139.257812 5.71875 -156.117188 5.71875 -174.609375 C 5.71875 -194.554688 10.296875 -209.742188 19.453125 -220.171875 C 28.609375 -230.597656 41.976562 -235.8125 59.5625 -235.8125 C 80.59375 -235.8125 95.734375 -230.234375 104.984375 -219.078125 C 114.234375 -207.929688 118.859375 -190.476562 118.859375 -166.71875 L 71.265625 -166.71875 L 70.984375 -182.78125 C 70.984375 -185.851562 70.117188 -188.296875 68.390625 -190.109375 C 66.671875 -191.929688 64.273438 -192.84375 61.203125 -192.84375 C 57.566406 -192.84375 54.84375 -191.84375 53.03125 -189.84375 C 51.21875 -187.851562 50.3125 -185.132812 50.3125 -181.6875 C 50.3125 -174.070312 54.664062 -166.179688 63.375 -158.015625 L 90.578125 -131.90625 C 96.921875 -125.75 102.175781 -119.90625 106.34375 -114.375 C 110.507812 -108.84375 113.863281 -102.3125 116.40625 -94.78125 C 118.945312 -87.257812 120.21875 -78.332031 120.21875 -68 C 120.21875 -44.96875 116 -27.515625 107.5625 -15.640625 C 99.132812 -3.765625 85.21875 2.171875 65.8125 2.171875 Z M 65.8125 2.171875 "/></g></g></g><g fill="#ffffff" fill-opacity="1"><g transform="translate(911.034113, 490.885041)"><g><path d="M 4.078125 0 L 26.65625 -233.640625 L 105.796875 -233.640625 L 128.109375 0 L 83.765625 0 L 80.5 -37.8125 L 52.21875 -37.8125 L 49.5 0 Z M 55.75 -75.0625 L 76.96875 -75.0625 L 66.640625 -193.921875 L 64.453125 -193.921875 Z M 55.75 -75.0625 "/></g></g></g><g fill="#ffffff" fill-opacity="1"><g transform="translate(1042.938706, 490.885041)"><g><path d="M 10.328125 0 L 10.328125 -233.640625 L 58.484375 -233.640625 L 79.96875 -121.84375 L 79.96875 -233.640625 L 125.109375 -233.640625 L 125.109375 0 L 79.421875 0 L 56.03125 -116.953125 L 56.03125 0 Z M 10.328125 0 "/></g></g></g><g fill="#ffffff" fill-opacity="1"><g transform="translate(1178.378914, 490.885041)"><g><path d="M 8.15625 0 L 8.15625 -233.640625 L 53.3125 -233.640625 L 53.3125 0 Z M 8.15625 0 "/></g></g></g><g fill="#ffffff" fill-opacity="1"><g transform="translate(302.641722, 773.20928)"><g><path d="M 10.328125 -233.640625 L 74.796875 -233.640625 C 91.472656 -233.640625 103.984375 -229.015625 112.328125 -219.765625 C 120.671875 -210.515625 124.929688 -196.820312 125.109375 -178.6875 L 125.65625 -69.359375 C 125.832031 -46.328125 121.84375 -29.007812 113.6875 -17.40625 C 105.53125 -5.800781 92.019531 0 73.15625 0 L 10.328125 0 Z M 65.546875 -41.34375 C 74.066406 -41.34375 78.328125 -45.515625 78.328125 -53.859375 L 78.328125 -174.34375 C 78.328125 -179.601562 77.921875 -183.546875 77.109375 -186.171875 C 76.296875 -188.796875 74.800781 -190.5625 72.625 -191.46875 C 70.445312 -192.382812 67.09375 -192.84375 62.5625 -192.84375 L 57.390625 -192.84375 L 57.390625 -41.34375 Z M 65.546875 -41.34375 "/></g></g></g><g fill="#ffffff" fill-opacity="1"><g transform="translate(436.722084, 773.20928)"><g><path d="M 8.15625 0 L 8.15625 -233.640625 L 53.3125 -233.640625 L 53.3125 0 Z M 8.15625 0 "/></g></g></g><g fill="#ffffff" fill-opacity="1"><g transform="translate(498.458889, 773.20928)"><g><path d="M 58.484375 2.171875 C 41.617188 2.171875 29.0625 -3.765625 20.8125 -15.640625 C 12.5625 -27.515625 8.4375 -45.507812 8.4375 -69.625 L 8.4375 -170.265625 C 8.4375 -191.835938 13.238281 -208.15625 22.84375 -219.21875 C 32.457031 -230.28125 46.78125 -235.8125 65.8125 -235.8125 C 81.226562 -235.8125 93.195312 -232.726562 101.71875 -226.5625 C 110.238281 -220.394531 116.128906 -211.414062 119.390625 -199.625 C 122.660156 -187.84375 124.296875 -172.707031 124.296875 -154.21875 L 78.609375 -154.21875 L 78.609375 -175.15625 C 78.609375 -180.78125 77.835938 -185.132812 76.296875 -188.21875 C 74.753906 -191.300781 71.988281 -192.84375 68 -192.84375 C 59.113281 -192.84375 54.671875 -187.039062 54.671875 -175.4375 L 54.671875 -62.28125 C 54.671875 -55.207031 55.578125 -49.859375 57.390625 -46.234375 C 59.203125 -42.609375 62.375 -40.796875 66.90625 -40.796875 C 71.4375 -40.796875 74.609375 -42.609375 76.421875 -46.234375 C 78.234375 -49.859375 79.140625 -55.207031 79.140625 -62.28125 L 79.140625 -95.734375 L 66.640625 -95.734375 L 66.640625 -135.984375 L 123.75 -135.984375 L 123.75 0 L 104.984375 0 L 97.09375 -19.578125 C 88.757812 -5.078125 75.890625 2.171875 58.484375 2.171875 Z M 58.484375 2.171875 "/></g></g></g><g fill="#ffffff" fill-opacity="1"><g transform="translate(630.363502, 773.20928)"><g><path d="M 4.078125 0 L 26.65625 -233.640625 L 105.796875 -233.640625 L 128.109375 0 L 83.765625 0 L 80.5 -37.8125 L 52.21875 -37.8125 L 49.5 0 Z M 55.75 -75.0625 L 76.96875 -75.0625 L 66.640625 -193.921875 L 64.453125 -193.921875 Z M 55.75 -75.0625 "/></g></g></g><g fill="#ffffff" fill-opacity="1"><g transform="translate(762.268135, 773.20928)"><g><path d="M 10.328125 0 L 10.328125 -233.640625 L 58.484375 -233.640625 L 79.96875 -121.84375 L 79.96875 -233.640625 L 125.109375 -233.640625 L 125.109375 0 L 79.421875 0 L 56.03125 -116.953125 L 56.03125 0 Z M 10.328125 0 "/></g></g></g><g fill="#ffffff" fill-opacity="1"><g transform="translate(897.708343, 773.20928)"><g><path d="M 30.46875 0 L 30.46875 -188.75 L 2.71875 -188.75 L 2.71875 -233.640625 L 104.984375 -233.640625 L 104.984375 -188.75 L 77.25 -188.75 L 77.25 0 Z M 30.46875 0 "/></g></g></g><g fill="#ffffff" fill-opacity="1"><g transform="translate(1005.407806, 773.20928)"><g><path d="M 4.078125 0 L 26.65625 -233.640625 L 105.796875 -233.640625 L 128.109375 0 L 83.765625 0 L 80.5 -37.8125 L 52.21875 -37.8125 L 49.5 0 Z M 55.75 -75.0625 L 76.96875 -75.0625 L 66.640625 -193.921875 L 64.453125 -193.921875 Z M 55.75 -75.0625 "/></g></g></g></svg>